#!OML:ASF E:/inclinewalkrobotboard/Project1/Captureday1/Session1/subject1.ASF
:FULLY-SPECIFIED
:DEGREES
101
root 0 0 0 0.4605698191122909 -3.163691706302018 1.2594508772099757
lowerback 11.50475336228714 0.6314713221314232 -0.5347750459105335
upperback -2.7785760719200203 0.7971672241930591 0.016952078130849424
thorax -9.45026832733523 0.3558516764598394 0.2001040738035852
lowerneck -9.799906870256798 0.2620536750954612 2.375438825517757
upperneck 18.552844313291498 1.1316004488600964 -5.504528833829365
head 7.447367420994809 0.2730711332550386 -2.0900310378263978
rclavicle 2.126019976435139E-16 -7.381850926908793E-16
rhumerus 2.5806922291040344 3.437489296296466 -59.565885223620676
rradius 56.19526175374898
rwrist 17.539468300609396
rhand -28.4000650410055 -27.543321390017663
rfingers 7.125019999999986
rthumb -1.76765071294518 -57.782180478421644
lclavicle -8.353343395739462E-16 -1.7523159290775707E-16
lhumerus 3.070062283212941 -9.598665791326418 59.0388946873512
lradius 55.771015168193
lwrist -11.270535351105528
lhand -38.86002607123109 -35.98480566167741
lfingers 7.125019999999983
lthumb -11.80117589459916 -6.292240541394385
rfemur -25.337069647265377 1.7783260293882208 19.999795707183964
rtibia 47.791035581109234
rfoot -7.298782493801392 -9.862254845519425
rtoes -1.4336676706617373
lfemur -14.88137230359161 -0.30350566123306244 -17.17290785332619
ltibia 42.59215445169379
lfoot -6.013471312267869 -4.78178644106199
ltoes -6.246320146106035
102
root 0 0 0 0.4608708472607881 -3.161631235529846 1.2631037001389227
lowerback 11.504967234446152 0.6301452275918646 -0.5383649739641255
upperback -2.7790093127419686 0.7949330688096053 0.016677598634957214
thorax -9.450924397316422 0.35484890543276276 0.20225070764760622
lowerneck -9.798692028313877 0.26276102255963796 2.375899888996594
upperneck 18.552834456821962 1.1327226705513516 -5.505554102029759
head 7.447187958114767 0.2735806722594545 -2.0902990765073803
rclavicle 2.1267533859181336E-16 -7.381865231434879E-16
rhumerus 2.581363115097627 3.437927141462671 -59.56547318001621
rradius 56.19586635682934
rwrist 17.539778667088093
rhand -28.400276406090658 -27.544352937265796
rfingers 7.125019999999986
rthumb -1.7678564547367985 -57.783260734152684
lclavicle -8.353743703886449E-16 -1.750367827493351E-16
lhumerus 3.073611684159708 -9.599672275154184 59.03642996437517
lradius 55.77378850629127
lwrist -11.272187549393072
lhand -38.86121198297485 -35.990666786489896
lfingers 7.125019999999983
lthumb -11.802307852971062 -6.298361001191857
rfemur -25.389825556164954 1.7651122600742688 19.973844570266067
rtibia 47.842222325468825
rfoot -7.2814579716129035 -9.871246838146293
rtoes -1.4417236054592353
lfemur -14.90622285864588 -0.2919823276609965 -17.15684909906295
ltibia 42.6733658524192
lfoot -5.985766169033388 -4.805411010866896
ltoes -6.257503821220488
103
root 0 0 0 0.46093576677495385 -3.1650673006906267 1.2566613229925057
lowerback 11.504402246410631 0.6324194843979771 -0.532201789963764
upperback -2.7785524965277535 0.798825140024851 0.017139582040990975
thorax -9.449987529869176 0.3565997212441343 0.19839198435205296
lowerneck -9.800498935957798 0.2619733986657984 2.375423387360927
upperneck 18.551718052362236 1.131174025560894 -5.503961396611774
head 7.447000614275888 0.2729056663705369 -2.089870372535184
rclavicle 2.12815720871907E-16 -7.368353819856286E-16
rhumerus 2.581474936998845 3.4382615140042887 -59.565673653483294
rradius 56.19576366926502
rwrist 17.539384721787542
rhand -28.40028228779149 -27.544089001760558
rfingers 7.125019999999986
rthumb -1.7676864509687658 -57.78256263840275
lclavicle -8.337454286584776E-16 -1.7338701786150336E-16
lhumerus 3.0776465302368337 -9.600961716630097 59.033900146460496
lradius 55.776673151214936
lwrist -11.274067673893756
lhand -38.86249563052313 -35.99670788381295
lfingers 7.125019999999983
lthumb -11.803432286552862 -6.305263409431866
rfemur -25.28821137894295 1.79353940842099 20.024911991346414
rtibia 47.713060072422216
rfoot -7.333349328779588 -9.860425070221602
rtoes -1.440430171837308
lfemur -14.89229254652101 -0.3237481841953178 -17.18096331683081
ltibia 42.44992540782283
lfoot -6.064094346431619 -4.724026787994852
ltoes -6.2185339789120135
104
root 0 0 0 0.4606899795062427 -3.1663141536232025 1.2552844639072338
lowerback 11.504577283991 0.6331461772021625 -0.5304480088564482
upperback -2.778501708026328 0.7999850199021368 0.017101861123811624
thorax -9.450018320534738 0.3571143296789241 0.19729220064567254
lowerneck -9.800516645611822 0.2616446608188352 2.375445109285897
upperneck 18.552535941301453 1.1308682279419928 -5.504044523248804
head 7.447297207920466 0.27273044273957536 -2.089955998960976
rclavicle 2.12528872144143E-16 -7.382085796093607E-16
rhumerus 2.581898022654933 3.438507440744484 -59.56542296842201
rradius 56.196331576228125
rwrist 17.539754610438244
rhand -28.400449788680113 -27.544971635334353
rfingers 7.125019999999986
rthumb -1.7679463334460248 -57.78383790093305
lclavicle -8.353231454423565E-16 -1.7495409704505976E-16
lhumerus 3.0745609796678828 -9.600048849360254 59.035806885006494
lradius 55.77466387403763
lwrist -11.272506858152836
lhand -38.861550178880805 -35.991975449229166
lfingers 7.125019999999983
lthumb -11.802621780845397 -6.299681590705276
rfemur -25.297047572508323 1.7904174324160833 20.020122353536834
rtibia 47.73056589875981
rfoot -7.325736125014817 -9.860133255901518
rtoes -1.4381755729420207
lfemur -14.889326222886194 -0.31568122368476603 -17.177667027313905
ltibia 42.5044171692397
lfoot -6.046645966274722 -4.74566613723109
ltoes -6.229577068189765
